<svg xmlns="http://www.w3.org/2000/svg" width="28.04" height="28" viewBox="0 0 28.04 28">
  <g id="_61560982e6b235b5c9541dc877cee908" data-name="61560982e6b235b5c9541dc877cee908" transform="translate(-5.915 -6)">
    <path id="Path_65839" data-name="Path 65839" d="M45.015,46.336A1.189,1.189,0,0,1,44.1,45.9c-1.565-1.886-5.2-6.672-5.106-10.057a6.021,6.021,0,1,1,12.042,0c.1,3.385-3.516,8.171-5.082,10.057A1.2,1.2,0,0,1,45.015,46.336Z" transform="translate(-25.079 -18.068)" fill="#fff"/>
    <path id="Path_65840" data-name="Path 65840" d="M29.881,7.834a.726.726,0,0,0-1.448.1l.048.99A14,14,0,0,0,7.094,25.576a.743.743,0,0,0,.676.434,1.212,1.212,0,0,0,.29-.048.738.738,0,0,0,.386-.941,12.55,12.55,0,0,1,19.19-14.941l-1.279.145a.714.714,0,0,0,.1,1.424h.1l2.9-.338a.721.721,0,0,0,.628-.772Zm2.872,6.517a.729.729,0,1,0-1.328.6,12.555,12.555,0,0,1-19.19,14.966l1.279-.145a.717.717,0,1,0-.169-1.424l-2.9.338a.721.721,0,0,0-.628.772l.169,2.728a.717.717,0,0,0,.724.676h.048a.713.713,0,0,0,.676-.772l-.048-.99A13.99,13.99,0,0,0,19.936,34,14.012,14.012,0,0,0,32.753,14.352Z" transform="translate(0)" fill="#fff"/>
    <g id="Group_21553" data-name="Group 21553" transform="translate(17.527 15.37)">
      <circle id="Ellipse_638" data-name="Ellipse 638" cx="2.408" cy="2.408" r="2.408" transform="translate(0 0)" fill="#007382"/>
    </g>
  </g>
</svg>
