<svg xmlns="http://www.w3.org/2000/svg" width="40.857" height="52" viewBox="0 0 40.857 52">
  <g id="Layer_2" data-name="Layer 2" transform="translate(-5 -2)">
    <path id="Path_10300" data-name="Path 10300" d="M25.429,54a1.857,1.857,0,0,0,1.151-.409c.706-.631,19.277-15.6,19.277-31.163A20.429,20.429,0,1,0,5,22.429C5,37.991,23.571,52.96,24.277,53.591A1.857,1.857,0,0,0,25.429,54ZM8.714,22.429a16.714,16.714,0,0,1,33.429,0c0,11.7-12.759,23.79-16.714,27.281C21.473,46.219,8.714,34.129,8.714,22.429Z" transform="translate(0 0)" fill="#007382"/>
    <path id="Path_10301" data-name="Path 10301" d="M29.629,17.314a9.314,9.314,0,1,0-9.314,9.314,9.314,9.314,0,0,0,9.314-9.314Zm-14.9,0A5.589,5.589,0,1,1,20.314,22.9a5.589,5.589,0,0,1-5.589-5.589Z" transform="translate(5.114 5.124)" fill="#007382"/>
  </g>
</svg>
