<svg xmlns="http://www.w3.org/2000/svg" width="13.803" height="18" viewBox="0 0 13.803 18">
  <path id="da086273b974cb595139babd4da17772" d="M19.323,9.752l-.29,8.775a2.89,2.89,0,0,1-2.9,2.8H10.625a2.89,2.89,0,0,1-2.9-2.793l-.29-8.778A.725.725,0,1,1,8.886,9.7l.29,8.777a1.45,1.45,0,0,0,1.45,1.394h5.508a1.45,1.45,0,0,0,1.45-1.4l.29-8.774a.725.725,0,1,1,1.45.048Zm.959-2.92a.725.725,0,0,1-.725.725H7.2a.725.725,0,0,1,0-1.45H9.45a.925.925,0,0,0,.923-.832,2.168,2.168,0,0,1,2.163-1.953h1.689a2.168,2.168,0,0,1,2.163,1.953.925.925,0,0,0,.923.832h2.247a.725.725,0,0,1,.725.725ZM11.63,6.107h3.5a2.392,2.392,0,0,1-.185-.684.725.725,0,0,0-.72-.652H12.536a.725.725,0,0,0-.72.652,2.392,2.392,0,0,1-.186.684Zm.73,10.981V10.916a.725.725,0,0,0-1.45,0v6.174a.725.725,0,0,0,1.45,0Zm3.489,0V10.916a.725.725,0,0,0-1.45,0v6.174a.725.725,0,0,0,1.45,0Z" transform="translate(-6.478 -3.322)" fill="#007382"/>
</svg>
