<svg xmlns="http://www.w3.org/2000/svg" width="17.981" height="17.981" viewBox="0 0 17.981 17.981">
  <path id="b21743bd27446b402537e815c62aa968" d="M19.3,2.632a2.985,2.985,0,0,1,0,4.222L8.278,17.879a3.732,3.732,0,0,1-1.734.982l-3.42.855a.746.746,0,0,1-.905-.905l.855-3.42a3.732,3.732,0,0,1,.982-1.734L15.081,2.632A2.985,2.985,0,0,1,19.3,2.632ZM14.026,5.8,5.111,14.713a2.239,2.239,0,0,0-.589,1.04l-.553,2.213,2.213-.553a2.239,2.239,0,0,0,1.04-.589l8.914-8.915Zm2.111-2.111L15.081,4.743l2.111,2.111L18.248,5.8a1.493,1.493,0,1,0-2.111-2.111Z" transform="translate(-2.196 -1.757)" fill="#fff"/>
</svg>
