<svg xmlns="http://www.w3.org/2000/svg" width="16.842" height="16" viewBox="0 0 16.842 16">
  <path id="e24d78743ea14913cc43c60b8b980393" d="M18.842,7.211v4.211a.842.842,0,1,1-1.684,0V7.211a.845.845,0,0,0-.842-.842H4.526a.845.845,0,0,0-.842.842v8.421a.845.845,0,0,0,.842.842h6.737a.842.842,0,1,1,0,1.684H4.526A2.534,2.534,0,0,1,2,15.632V7.211A2.534,2.534,0,0,1,4.526,4.684h.842V3.842a.842.842,0,1,1,1.684,0v.842h6.737V3.842a.842.842,0,0,1,1.684,0v.842h.842A2.534,2.534,0,0,1,18.842,7.211Zm-1.928,6.139a.8.8,0,0,0-.278-.185.844.844,0,0,0-.918.185l-1.684,1.684a.842.842,0,0,0,.589,1.44h.842v1.684a.842.842,0,0,0,1.684,0V16.474h.842a.842.842,0,0,0,.589-1.44L16.9,13.349Z" transform="translate(-2 -3)" fill="#fff"/>
</svg>
