<svg xmlns="http://www.w3.org/2000/svg" width="74.879" height="68.5" viewBox="0 0 74.879 68.5">
  <g id="bd09995290aab9cf7de08b28cdd442ee" transform="translate(0.374 -70.75)">
    <path id="Path_65807" data-name="Path 65807" d="M14.04,139A14.038,14.038,0,0,1,1.866,118L24.953,78a14.048,14.048,0,0,1,24.3,0l23.087,40a14.038,14.038,0,0,1-12.13,21ZM37.084,72.739a12.288,12.288,0,0,0-10.609,6.13l-23.087,40a12.03,12.03,0,0,0,.043,12.261,12.145,12.145,0,0,0,10.609,6.13H60.214a12.267,12.267,0,0,0,11.652-8.522,12.1,12.1,0,0,0-1.043-9.87l-23.087-40A12.306,12.306,0,0,0,37.084,72.739Z" transform="translate(0 0)" fill="#007382" stroke="#b1d3d3" stroke-width="0.5" fill-rule="evenodd"/>
    <path id="Path_65808" data-name="Path 65808" d="M109.814,230.3a9.539,9.539,0,0,1-8.348-4.869,9.4,9.4,0,0,1-.043-9.608l23.086-40a9.67,9.67,0,0,1,16.739,0l23.086,40a9.655,9.655,0,0,1-8.348,14.478Zm23.043-57.563a8,8,0,0,0-6.869,3.956l-23.043,40a7.633,7.633,0,0,0,.043,7.869,7.736,7.736,0,0,0,6.826,4h46.172a7.92,7.92,0,0,0,7.521-5.522,7.754,7.754,0,0,0-.7-6.348l-23.043-40A8.013,8.013,0,0,0,132.856,172.739Z" transform="translate(-95.773 -95.651)" fill="#007382" stroke="#b1d3d3" stroke-width="0.5" fill-rule="evenodd"/>
    <path id="Path_65809" data-name="Path 65809" d="M505.046,451.333h-.087l-2.783-.3a.819.819,0,0,1-.348-.087l-2.392-1.478a.793.793,0,0,1-.348-1.043l3.436-8.955-13,4.869a.808.808,0,0,1-.913-.217.875.875,0,0,1-.174-.956l14-29.6a.889.889,0,0,1,1.174-.435l4.914,2.347a.684.684,0,0,1,.435.478.847.847,0,0,1,0,.652l-7.35,15.519,11.525-4.347a.887.887,0,0,1,.913.217.823.823,0,0,1,.217.913l-8.437,21.865A.836.836,0,0,1,505.046,451.333Z" transform="translate(-467.135 -327.163)" fill="#007382" fill-rule="evenodd"/>
    <path id="Path_65810" data-name="Path 65810" d="M697.584,1199.467a.552.552,0,0,1-.261-.043.913.913,0,0,1-.565-.566l-2.348-8.046a.931.931,0,0,1,.3-.913.85.85,0,0,1,1-.043l3.914,2.392,4.7.478a.836.836,0,0,1,.783.609.849.849,0,0,1-.348.913l-6.654,5.045A.692.692,0,0,1,697.584,1199.467Z" transform="translate(-664.197 -1070.078)" fill="#007382" fill-rule="evenodd"/>
  </g>
</svg>
