<svg xmlns="http://www.w3.org/2000/svg" width="41.966" height="38.4" viewBox="0 0 41.966 38.4">
  <g id="bd09995290aab9cf7de08b28cdd442ee" transform="translate(0.268 0.2)">
    <path id="Path_53847" data-name="Path 53847" d="M7.845,109a7.845,7.845,0,0,1-6.8-11.735l12.9-22.353a7.85,7.85,0,0,1,13.582,0l12.9,22.353A7.845,7.845,0,0,1,33.648,109ZM20.722,71.972A6.867,6.867,0,0,0,14.794,75.4L1.892,97.751a6.722,6.722,0,0,0,.024,6.852,6.787,6.787,0,0,0,5.928,3.426h25.8a6.855,6.855,0,0,0,6.512-4.762,6.763,6.763,0,0,0-.583-5.515L26.675,75.4A6.877,6.877,0,0,0,20.722,71.972Z" transform="translate(0.003 -71)" fill="#007382" stroke="#007382" stroke-width="0.4" fill-rule="evenodd"/>
    <path id="Path_53848" data-name="Path 53848" d="M105.539,204.139a5.331,5.331,0,0,1-4.665-2.721,5.253,5.253,0,0,1-.024-5.369l12.9-22.352a5.4,5.4,0,0,1,9.354,0l12.9,22.352a5.4,5.4,0,0,1-4.665,8.091Zm12.877-32.168a4.468,4.468,0,0,0-3.839,2.211L101.7,196.535a4.266,4.266,0,0,0,.024,4.4,4.323,4.323,0,0,0,3.814,2.235h25.8a4.426,4.426,0,0,0,4.2-3.086,4.334,4.334,0,0,0-.389-3.547l-12.877-22.352A4.478,4.478,0,0,0,118.416,171.972Z" transform="translate(-97.69 -168.57)" fill="#007382" stroke="#007382" stroke-width="0.4" fill-rule="evenodd"/>
    <path id="Path_53849" data-name="Path 53849" d="M497.685,434.439h-.049l-1.555-.17a.457.457,0,0,1-.194-.049l-1.337-.826a.443.443,0,0,1-.194-.583l1.92-5-7.267,2.721a.452.452,0,0,1-.51-.121.489.489,0,0,1-.1-.534l7.825-16.543a.5.5,0,0,1,.656-.243l2.746,1.312a.382.382,0,0,1,.243.267.474.474,0,0,1,0,.364l-4.107,8.672,6.44-2.429a.5.5,0,0,1,.51.121.46.46,0,0,1,.122.51l-4.715,12.219A.467.467,0,0,1,497.685,434.439Z" transform="translate(-476.498 -404.726)" fill="#007382" fill-rule="evenodd"/>
    <path id="Path_53850" data-name="Path 53850" d="M696.172,1195.164a.31.31,0,0,1-.146-.024.511.511,0,0,1-.316-.316l-1.312-4.5a.519.519,0,0,1,.17-.51.475.475,0,0,1,.559-.024l2.187,1.336,2.625.268a.467.467,0,0,1,.438.34.474.474,0,0,1-.194.51l-3.718,2.819A.387.387,0,0,1,696.172,1195.164Z" transform="translate(-677.513 -1162.535)" fill="#007382" fill-rule="evenodd"/>
  </g>
</svg>
