<svg xmlns="http://www.w3.org/2000/svg" width="67.063" height="68.001" viewBox="0 0 67.063 68.001">
  <path id="_8a8953d0f69ddc2044c1510089af6b1d" data-name="8a8953d0f69ddc2044c1510089af6b1d" d="M50.267,47.693a1.1,1.1,0,0,1,.538-1.455l5.426-2.5a1.1,1.1,0,0,1,.916,1.993l-5.426,2.5a1.1,1.1,0,0,1-1.455-.538ZM42.85,45.736a1.1,1.1,0,1,0-.916-1.993l-5.426,2.5a1.1,1.1,0,1,0,.916,1.993ZM77.692,73.022A5.9,5.9,0,0,1,72.532,76h-60a1.1,1.1,0,0,1-1.1-1.1V70.679a1.1,1.1,0,0,1,1.1-1.1h1.511l4.441-36.913a1.1,1.1,0,0,1-.949-1.086V28.315a1.1,1.1,0,0,1,1.1-1.1H21.9V24.634a5.61,5.61,0,0,1-2.638-2.425,5.085,5.085,0,0,1-.618-2.566A4.119,4.119,0,0,1,15.063,15.7a4.192,4.192,0,0,1,4.349-4q.09,0,.18,0a4.545,4.545,0,0,1,1.149-1.957A5.123,5.123,0,0,1,28,9.777a4.561,4.561,0,0,1,3.857.279A6.7,6.7,0,0,1,36.749,8a6.583,6.583,0,0,1,6.106,3.9,4.587,4.587,0,0,1,.85-.08,4.252,4.252,0,0,1,4.352,4.133A4.152,4.152,0,0,1,45.268,19.8a5.06,5.06,0,0,1,.512,2.21,5.461,5.461,0,0,1-5.6,5.3,5.715,5.715,0,0,1-4.6-2.28,6,6,0,0,1-3.912.695,5.88,5.88,0,0,1-2.056-.732v2.225h3.265a1.1,1.1,0,0,1,1.1,1.1v3.269a1.1,1.1,0,0,1-.948,1.086l.781,6.495,12.567-5.779a1.1,1.1,0,0,1,1.555,1v4.863l12.743-5.86a1.1,1.1,0,0,1,1.555,1v4.863l12.743-5.86a1.1,1.1,0,0,1,1.555,1V65.034l1.172,2.029A5.9,5.9,0,0,1,77.692,73.022ZM34.078,41.452l3.385,28.13h7.831a5.97,5.97,0,0,1,.787-2.519L56.727,48.625a5.978,5.978,0,0,1,8.105-2.209,1.1,1.1,0,0,1,.271-.177l5.426-2.5a1.1,1.1,0,1,1,.916,1.993L66.6,47.962a6.142,6.142,0,0,1,.442.663h0l7.28,12.61V36.094l-12.743,5.86a1.1,1.1,0,0,1-1.555-1V36.094l-12.743,5.86a1.1,1.1,0,0,1-1.555-1V36.094ZM20.694,32.681l-.844,7.012H31.657l-.844-7.012Zm3.4-8.811v3.349h3.321v-4.9a1.1,1.1,0,0,1,2.067-.511,3.412,3.412,0,0,0,2.529,1.75,3.7,3.7,0,0,0,3.157-.941,1.1,1.1,0,0,1,1.789.4,3.4,3.4,0,0,0,3.224,2.1,3.27,3.27,0,0,0,3.407-3.1,2.952,2.952,0,0,0-1.044-2.234,1.1,1.1,0,0,1,.86-1.912,2.431,2.431,0,0,0,.3.019,2.06,2.06,0,0,0,2.159-1.939A2.06,2.06,0,0,0,43.7,14.009a2.344,2.344,0,0,0-1.065.253,1.1,1.1,0,0,1-1.577-.766,4.286,4.286,0,0,0-4.313-3.3,4.5,4.5,0,0,0-3.777,1.978,1.1,1.1,0,0,1-1.71.168,2.335,2.335,0,0,0-2.942-.27,1.1,1.1,0,0,1-1.56-.333,2.8,2.8,0,0,0-2.4-1.289,2.9,2.9,0,0,0-2.055.84,2.3,2.3,0,0,0-.685,1.668,1.1,1.1,0,0,1-1.434,1.056,2.5,2.5,0,0,0-.77-.12,2.008,2.008,0,0,0-2.156,1.81,2.008,2.008,0,0,0,2.156,1.81,2.575,2.575,0,0,0,.359-.025,1.1,1.1,0,0,1,1.2,1.414,2.862,2.862,0,0,0,.22,2.263,3.451,3.451,0,0,0,2.1,1.648A1.1,1.1,0,0,1,24.093,23.869ZM19.73,30.487H31.776V29.412H19.73Zm-3.477,39.1h19l-3.332-27.7H19.586Zm-2.623,4.225H46.624a5.968,5.968,0,0,1-1.084-2.031H13.631ZM75.792,68.16,65.147,49.722a3.764,3.764,0,0,0-6.52,0L47.981,68.16a3.765,3.765,0,0,0,3.26,5.647H72.532a3.764,3.764,0,0,0,3.26-5.647ZM64.614,69.748a2.727,2.727,0,1,1-2.727-2.727A2.73,2.73,0,0,1,64.614,69.748Zm-2.194,0a.534.534,0,1,0-.534.534A.534.534,0,0,0,62.42,69.748Zm-2.9-5.728L59.2,55.112a2.37,2.37,0,0,1,2.368-2.455h.643a2.369,2.369,0,0,1,2.368,2.455l-.322,8.909a2.369,2.369,0,0,1-4.736,0Zm1.871-8.987.322,8.908a.176.176,0,0,0,.351,0l.322-8.909a.176.176,0,0,0-.176-.182h-.643a.176.176,0,0,0-.176.182Z" transform="translate(-11.437 -8)" fill="#007382"/>
</svg>
