<svg xmlns="http://www.w3.org/2000/svg" width="68.318" height="68.311" viewBox="0 0 68.318 68.311">
  <g id="_5f3d1447ceff8b6573869aff6e80f5d8" data-name="5f3d1447ceff8b6573869aff6e80f5d8" transform="translate(0.155 0.15)">
    <path id="Path_65816" data-name="Path 65816" d="M39.633,40.462a1.132,1.132,0,0,0-1.233.191c-.568.531-.345,1.19-.112,1.9.478,1.418,1.472,4.378-.786,6.641a4.128,4.128,0,0,1-6.758-1.748c-1.381-3.719.064-7.438.839-9.489.473-1.238.738-1.918.175-2.529a1.2,1.2,0,0,0-1.238-.319c-1.785.489-10.865,5.8-10.865,18.552a14.344,14.344,0,1,0,19.976-13.2ZM37.827,64.4A5.169,5.169,0,0,1,34,65.841a5.041,5.041,0,0,1-5.313-5.276,10.094,10.094,0,0,1,.181-1.859,8.5,8.5,0,0,0,1.594,1.95,5.722,5.722,0,0,0,7.2.25,7.794,7.794,0,0,0,1.493-1.594,5.637,5.637,0,0,1,.159,1.254A5.345,5.345,0,0,1,37.827,64.4Zm2.917-.531a7.879,7.879,0,0,0,.7-3.3,9.032,9.032,0,0,0-1.222-4.282,1.063,1.063,0,0,0-1.9.181,7.517,7.517,0,0,1-1.966,2.768,3.57,3.57,0,0,1-4.489-.175A9.465,9.465,0,0,1,29.7,55.476a1.063,1.063,0,0,0-1.966-.165,12.873,12.873,0,0,0-1.174,5.254,7.757,7.757,0,0,0,.717,3.294,12.219,12.219,0,0,1-5.5-10.2c0-8.809,4.681-13.431,7.438-15.375-.839,2.348-1.854,6.12-.436,9.9a6.205,6.205,0,0,0,4.548,4.1,6.306,6.306,0,0,0,5.7-1.594,7.366,7.366,0,0,0,1.774-7.2,12.219,12.219,0,0,1-.032,20.358ZM1.063,2.125H21.251v9.563a1.063,1.063,0,0,0,1.063,1.063H45.69a1.063,1.063,0,0,0,1.063-1.063V2.125H66.94A1.063,1.063,0,0,0,66.94,0H1.063a1.063,1.063,0,0,0,0,2.125Zm43.564,0v8.5H23.376v-8.5ZM27.238,18.632a1.063,1.063,0,0,0,0,1.5,9.563,9.563,0,0,0,13.526,0,1.063,1.063,0,1,0-1.5-1.5,7.438,7.438,0,0,1-10.519,0,1.063,1.063,0,0,0-1.5,0Z" transform="translate(-0.001)" fill="#007382" stroke="#b1d3d3" stroke-width="0.3"/>
    <path id="Path_65817" data-name="Path 65817" d="M37.756,22.269a1.063,1.063,0,0,0-1.5-1.5,3.188,3.188,0,0,1-4.505,0,1.063,1.063,0,1,0-1.5,1.5A5.313,5.313,0,0,0,37.756,22.269ZM24.235,26.78a1.063,1.063,0,0,0,0,1.5,13.813,13.813,0,0,0,19.53,0,1.063,1.063,0,1,0-1.5-1.5,11.688,11.688,0,0,1-16.533,0,1.063,1.063,0,0,0-1.5,0Zm-9.473-9.611L9.408,20.627a1.063,1.063,0,0,0,.579,1.955,1.031,1.031,0,0,0,.574-.17l5.376-3.459a1.063,1.063,0,1,0-1.153-1.785Zm-8.92,5.764L.482,26.392A1.064,1.064,0,0,0,1.64,28.177l5.35-3.459a1.063,1.063,0,1,0-1.148-1.785ZM16.867,11.022l-6.051,2a1.063,1.063,0,1,0,.669,2.019l6.046-2a1.063,1.063,0,1,0-.669-2.019ZM6.778,14.364l-6.051,2a1.063,1.063,0,0,0,.335,2.056A1.062,1.062,0,0,0,1.4,18.37l6.041-1.987a1.063,1.063,0,0,0-.669-2.019Zm51.815,6.264-5.355-3.459a1.068,1.068,0,0,0-1.174,1.785l5.355,3.459a1.031,1.031,0,0,0,.574.17,1.063,1.063,0,0,0,.579-1.955Zm8.925,5.764-5.361-3.459A1.063,1.063,0,1,0,61,24.718l5.35,3.459a1.065,1.065,0,0,0,1.163-1.785ZM56.845,15.1a1.063,1.063,0,0,0,.335-2.072l-6.046-2a1.063,1.063,0,0,0-.664,2.019l6.051,2A1.063,1.063,0,0,0,56.845,15.1ZM66.6,18.386a1.063,1.063,0,1,0,.669-2.019l-6.051-2a1.063,1.063,0,1,0-.669,2.019Z" transform="translate(0 -5.141)" fill="#007382" stroke="#b1d3d3" stroke-width="0.3"/>
  </g>
</svg>
