<svg xmlns="http://www.w3.org/2000/svg" width="33.984" height="67.999" viewBox="0 0 33.984 67.999">
  <g id="_42.thermometer" data-name="42.thermometer" transform="translate(-18.034 -4.035)">
    <path id="Path_65814" data-name="Path 65814" d="M40,47.059V12.183a8.148,8.148,0,0,0-16.3,0V47.059a13.817,13.817,0,1,0,16.3,0ZM31.858,69.613a11.386,11.386,0,0,1-6.258-20.9l.085-.085a1.215,1.215,0,0,0,.437-.814,1.131,1.131,0,0,0,0-.122V12.183a5.717,5.717,0,1,1,11.435,0V47.654a1.132,1.132,0,0,0,0,.122.8.8,0,0,0,.389.814l.085.085a11.386,11.386,0,0,1-6.173,20.938Z" transform="translate(0 0)" fill="#007382"/>
    <path id="Path_65815" data-name="Path 65815" d="M32.551,49.395a1.8,1.8,0,0,0,0-.231V12.623a1.823,1.823,0,1,0-3.646,0V49.164a1.8,1.8,0,0,0,0,.231,7.559,7.559,0,1,0,3.646,0ZM49.7,39.758H42.771a1.215,1.215,0,1,0,0,2.43H49.7a1.215,1.215,0,1,0,0-2.43Zm0-5.043H42.771a1.215,1.215,0,1,0,0,2.43H49.7a1.215,1.215,0,1,0,0-2.43Zm0-5.043H42.771a1.215,1.215,0,1,0,0,2.43H49.7a1.215,1.215,0,1,0,0-2.43Zm0-5.031H42.771a1.215,1.215,0,1,0,0,2.43H49.7a1.215,1.215,0,1,0,0-2.43Zm0-5.092H42.771a1.215,1.215,0,1,0,0,2.43H49.7a1.215,1.215,0,1,0,0-2.43Zm-6.975-2.564H49.7a1.215,1.215,0,1,0,0-2.43H42.771a1.215,1.215,0,1,0,0,2.43Z" transform="translate(1.105 1.456)" fill="#007382"/>
  </g>
</svg>
