<svg xmlns="http://www.w3.org/2000/svg" width="61.837" height="68" viewBox="0 0 61.837 68">
  <g id="_00d005b80e7ea5910af9a72c9d9d66c2" data-name="00d005b80e7ea5910af9a72c9d9d66c2" transform="translate(-14.667 -9.75)">
    <path id="Path_65811" data-name="Path 65811" d="M26.314,56.037H48.176a1.1,1.1,0,1,0,0-2.194H26.314a1.1,1.1,0,0,0,0,2.194Zm0,5.83h16.68a1.1,1.1,0,1,0,0-2.194H26.314a1.1,1.1,0,0,0,0,2.194ZM49.534,65.5H26.314a1.1,1.1,0,1,0,0,2.194h23.22a1.1,1.1,0,1,0,0-2.194Zm-6.541,5.831H26.314a1.1,1.1,0,1,0,0,2.194h16.68a1.1,1.1,0,1,0,0-2.194ZM50.365,20.3H25.923a1.1,1.1,0,0,0-1.1,1.1V45.839a1.1,1.1,0,0,0,1.1,1.1H50.365a1.1,1.1,0,0,0,1.1-1.1V21.4a1.1,1.1,0,0,0-1.1-1.1ZM40.181,22.494v4.769l-1.352-1.082a1.1,1.1,0,0,0-1.37,0l-1.352,1.082V22.494Zm9.088,22.249H27.02V22.494h6.894v7.051A1.1,1.1,0,0,0,35.7,30.4l2.449-1.959L40.593,30.4a1.1,1.1,0,0,0,1.782-.857V22.494h6.894Z" transform="translate(-3.792 -3.938)" fill="#b1d3d3"/>
    <path id="Path_65812" data-name="Path 65812" d="M76.5,46.781a1.1,1.1,0,0,0-1.1-1.1H63.737V19.2a.363.363,0,0,0-.015-.1,1.085,1.085,0,0,0-.306-.679l-8.359-8.359a1.084,1.084,0,0,0-.694-.307.331.331,0,0,0-.082-.014H15.764a1.1,1.1,0,0,0-1.1,1.1V76.653a1.1,1.1,0,0,0,1.1,1.1H62.643a1.1,1.1,0,0,0,1.1-1.1V73.52C66.917,72.7,76.5,68.419,76.5,46.781ZM55.379,13.495l4.614,4.614H55.379ZM16.861,75.556V11.944H53.185V19.2a1.1,1.1,0,0,0,1.1,1.1h7.262V45.684H49.873a1.1,1.1,0,0,0-1.1,1.1c0,21.638,9.589,25.918,12.767,26.742v2.034Zm45.781-4.039c-1.228-.182-11.327-2.338-11.663-23.64H74.3C73.966,69.2,63.843,71.34,62.642,71.517Z" fill="#b1d3d3"/>
    <path id="Path_65813" data-name="Path 65813" d="M94.61,78.612a1.1,1.1,0,0,0-1.549.071l-6.824,7.475L83.116,83.7a1.1,1.1,0,1,0-1.356,1.724l3.921,3.085a1.1,1.1,0,0,0,1.488-.125l7.511-8.228A1.1,1.1,0,0,0,94.61,78.612Z" transform="translate(-24.887 -25.597)" fill="#b1d3d3"/>
  </g>
</svg>
