<svg xmlns="http://www.w3.org/2000/svg" width="38.41" height="38.532" viewBox="0 0 38.41 38.532">
  <path id="b80f21555083ac181036485dcb9449a5" d="M10.371,23.769l5.066-6.333a.634.634,0,0,1,1.038.07l1.6,2.664.392-.2V18.465a.633.633,0,0,1,.433-.6l1.9-.633a.633.633,0,1,1,.4,1.2l-1.467.489v1.443a.633.633,0,0,1-.35.566l-.655.327,1.548,2.58a.633.633,0,0,1-.543.959H10.865a.634.634,0,0,1-.495-1.029ZM39.363,40h-22.8a42.827,42.827,0,0,1-10.57-1.2l-.622.621a1.977,1.977,0,1,1-2.8-2.8l.644-.644a92.773,92.773,0,0,1,0-29.962l-.644-.644a1.977,1.977,0,1,1,2.8-2.8l.621.622a41.9,41.9,0,0,1,19.874,0l.621-.621a2.026,2.026,0,0,1,2.8,0,1.979,1.979,0,0,1,0,2.8l-.644.644a92.8,92.8,0,0,1,1.033,20.751,3.171,3.171,0,0,1,.74.657l9.439,11.536A.634.634,0,0,1,39.363,40ZM16.275,38.717l7.762-9.486H7.066a.633.633,0,0,1-.633-.633V13.4a.633.633,0,0,1,.633-.633H24.8a.633.633,0,0,1,.633.633V27.526a3.143,3.143,0,0,1,3-1.223A91.572,91.572,0,0,0,27.339,5.9a.633.633,0,0,1,.177-.552l.874-.874a.71.71,0,1,0-1-1l-.874.874a.632.632,0,0,1-.6.167,40.686,40.686,0,0,0-19.957,0,.632.632,0,0,1-.6-.167l-.874-.874a.71.71,0,0,0-1,1l.874.874a.634.634,0,0,1,.177.552,91.493,91.493,0,0,0,0,30.189.634.634,0,0,1-.177.552l-.874.874a.711.711,0,0,0,0,1,.726.726,0,0,0,1,0l.874-.874a.636.636,0,0,1,.6-.167,40.724,40.724,0,0,0,10.322,1.235Zm7.89-24.685H7.7V27.964H24.164Zm0,22.165a.633.633,0,1,0-.633.633A.633.633,0,0,0,24.164,36.2Zm1.9-3.8a.633.633,0,1,0-.633.633A.633.633,0,0,0,26.064,32.4ZM28.6,36.2a.633.633,0,1,0-.633.633A.633.633,0,0,0,28.6,36.2Zm.633-5.7a.633.633,0,1,0-.633.633A.633.633,0,0,0,29.23,30.5Zm1.9,3.166a.633.633,0,1,0-.633.633A.633.633,0,0,0,31.13,33.663ZM34.3,36.83a.633.633,0,1,0-.633.633A.633.633,0,0,0,34.3,36.83Z" transform="translate(-1.796 -1.667)" fill="#007382" stroke="#007382" stroke-width="0.4"/>
</svg>
