<svg xmlns="http://www.w3.org/2000/svg" width="69.648" height="47.225" viewBox="0 0 69.648 47.225">
  <g id="_0e52928efd67d193b25c5acb5356ebdd" data-name="0e52928efd67d193b25c5acb5356ebdd" transform="translate(-17.52 -32.5)">
    <path id="Path_53851" data-name="Path 53851" d="M33.428,81.485A3.443,3.443,0,1,0,30,78.043,3.443,3.443,0,0,0,33.428,81.485Zm0-5.4A1.946,1.946,0,1,1,31.5,78.043a1.946,1.946,0,0,1,1.931-1.953Zm22.018,5.4A3.443,3.443,0,1,0,52,78.043,3.443,3.443,0,0,0,55.446,81.485Zm0-5.4A1.946,1.946,0,1,1,53.5,78.035,1.946,1.946,0,0,1,55.446,76.089Z" transform="translate(-3.102 -10.554)" fill="#b1d3d3" stroke="#b1d3d3" stroke-width="0.3"/>
    <path id="Path_53852" data-name="Path 53852" d="M75.916,68.789H31.88a7.791,7.791,0,1,0,0,15.574H75.916a7.791,7.791,0,1,0,0-15.574ZM60.2,76.58a6.3,6.3,0,0,1-6.3,6.287h0a6.294,6.294,0,1,1,6.309-6.294Zm-34.6,0a6.294,6.294,0,1,1,6.294,6.287h0a6.3,6.3,0,0,1-6.309-6.287Zm10.852,6.287a7.761,7.761,0,0,0,0-12.581H49.325a7.761,7.761,0,0,0,0,12.581Zm22.018,0a7.761,7.761,0,0,0,0-12.581H71.343a7.761,7.761,0,0,0,0,12.581Zm17.445,0h0a6.338,6.338,0,1,0-.015,0Z" transform="translate(-1.554 -9.091)" fill="#b1d3d3" stroke="#b1d3d3" stroke-width="0.3"/>
    <path id="Path_53853" data-name="Path 53853" d="M92.258,74.59a3.443,3.443,0,1,0,3.428,3.45,3.443,3.443,0,0,0-3.428-3.45Zm0,5.4a1.946,1.946,0,1,1,1.931-1.946A1.946,1.946,0,0,1,92.258,79.986Z" transform="translate(-17.896 -10.552)" fill="#b1d3d3" stroke="#b1d3d3" stroke-width="0.3"/>
    <path id="Path_53854" data-name="Path 53854" d="M74.886,55.312H72.813V33.4a.748.748,0,0,0-.748-.748H49.4a.748.748,0,0,0-.748.748v5.134H32.623a.748.748,0,0,0-.748.748V55.312H29.8a12.132,12.132,0,1,0,0,24.263H74.886a12.132,12.132,0,1,0,0-24.263ZM62.358,34.147v4.969H59.079V34.147Zm-12.2,0h7.424v5.718a.748.748,0,0,0,.748.748h4.737a.748.748,0,0,0,.748-.748V34.147H71.3V55.312H50.151Zm-8.135,5.882v3.293H40.01V40.029Zm-8.644,0h5.134v4.041a.748.748,0,0,0,.748.748h3.51a.748.748,0,0,0,.748-.748V40.029h5.134V55.312H33.372ZM74.886,78.078H29.8a10.635,10.635,0,0,1,0-21.27H74.886a10.635,10.635,0,1,1,0,21.27Z" fill="#b1d3d3" stroke="#b1d3d3" stroke-width="0.3"/>
  </g>
</svg>
