<svg xmlns="http://www.w3.org/2000/svg" width="38.4" height="38.4" viewBox="0 0 38.4 38.4">
  <g id="f1391e1d64f9fe343bc166531ab38c56" transform="translate(0.2 0.2)">
    <path id="Path_53861" data-name="Path 53861" d="M28.523,40.627H.8a.753.753,0,0,1-.8-.8V20.708a.766.766,0,0,1,.478-.717l18.166-8.206a.681.681,0,0,1,.558,0l9.561,3.346a.765.765,0,0,1,.558.717V39.83A.753.753,0,0,1,28.523,40.627ZM1.593,39.033H27.727V16.406l-8.764-3.028L1.593,21.186Z" transform="translate(0 -2.627)" fill="#007382" stroke="#007382" stroke-width="0.4"/>
    <path id="Path_53862" data-name="Path 53862" d="M19.582,40.784a.753.753,0,0,1-.8-.8V13.3a.8.8,0,1,1,1.593,0V39.988A.753.753,0,0,1,19.582,40.784ZM4.284,24.849a.959.959,0,0,1-.8-.558.809.809,0,0,1,.558-1.036L15.359,19.75a.832.832,0,1,1,.478,1.593L4.523,24.849Zm0,4.223a.776.776,0,0,1-.8-.637.807.807,0,0,1,.637-.956l11.314-2.39a.813.813,0,1,1,.319,1.593L4.444,29.072H4.284Zm0,4.143a.847.847,0,0,1-.8-.717.791.791,0,0,1,.717-.876l11.314-1.2a.8.8,0,1,1,.159,1.593l-11.314,1.2ZM15.6,37.438H4.284a.8.8,0,0,1,0-1.593H15.6a.8.8,0,1,1,0,1.593Z" transform="translate(-0.699 -2.784)" fill="#007382" stroke="#007382" stroke-width="0.4"/>
    <path id="Path_53863" data-name="Path 53863" d="M40.984,38H28.793a.792.792,0,1,1,0-1.583H40.187V5.146L29.351,1.663,18.993,6.254v5.3a.8.8,0,0,1-1.593,0V5.7a.692.692,0,0,1,.478-.713L28.953.079A1.364,1.364,0,0,1,29.51,0L41.223,3.8a.953.953,0,0,1,.558.792V37.208A.75.75,0,0,1,40.984,38Z" transform="translate(-3.78)" fill="#007382" stroke="#007382" stroke-width="0.4"/>
    <path id="Path_53864" data-name="Path 53864" d="M40.8,12.459a.749.749,0,0,1-.8-.79V8.59a.8.8,0,0,1,1.593,0v3.079A.749.749,0,0,1,40.8,12.459Zm0,5.527a.749.749,0,0,1-.8-.79V14.117a.8.8,0,0,1,1.593,0V17.2A.749.749,0,0,1,40.8,17.986Zm0,5.606a.749.749,0,0,1-.8-.79V19.644a.8.8,0,0,1,1.593,0V22.8A.749.749,0,0,1,40.8,23.592Zm0,5.527a.749.749,0,0,1-.8-.79V25.25a.8.8,0,0,1,1.593,0v3.079A.749.749,0,0,1,40.8,29.119Zm0,5.527a.749.749,0,0,1-.8-.79V30.777a.8.8,0,0,1,1.593,0v3.079A.749.749,0,0,1,40.8,34.646Z" transform="translate(-8.374 -1.585)" fill="#007382" stroke="#007382" stroke-width="0.2"/>
  </g>
</svg>
