<svg id="_62865ac104e0989c9c80894955f21aa1" data-name="62865ac104e0989c9c80894955f21aa1" xmlns="http://www.w3.org/2000/svg" width="30" height="36" viewBox="0 0 30 36">
  <path id="Path_65791" data-name="Path 65791" d="M31.565,7.935l-7.5-7.5A1.549,1.549,0,0,0,23,0H6.5A4.513,4.513,0,0,0,2,4.5v27A4.513,4.513,0,0,0,6.5,36h6a1.5,1.5,0,1,0,0-3h-6A1.5,1.5,0,0,1,5,31.5V4.5A1.5,1.5,0,0,1,6.5,3H20v7.5A1.5,1.5,0,0,0,21.5,12H29v4.5a1.5,1.5,0,1,0,3,0V9A1.549,1.549,0,0,0,31.565,7.935ZM23,9V3.615L28.385,9Z" transform="translate(-2)" fill="#a1dded"/>
  <path id="Path_65792" data-name="Path 65792" d="M26.571,19.532h-1.7a5.64,5.64,0,0,0-.648-1.552l1.205-1.205A1.5,1.5,0,0,0,23.3,14.651L22.1,15.856a5.64,5.64,0,0,0-1.552-.648v-1.7a1.506,1.506,0,0,0-3.013,0v1.7a5.64,5.64,0,0,0-1.552.648l-1.205-1.205a1.5,1.5,0,0,0-2.124,2.124l1.205,1.205a5.64,5.64,0,0,0-.648,1.552h-1.7a1.506,1.506,0,1,0,0,3.013h1.7a5.64,5.64,0,0,0,.648,1.552L12.651,25.3a1.5,1.5,0,0,0,0,2.124,1.474,1.474,0,0,0,2.124,0l1.205-1.205a5.64,5.64,0,0,0,1.552.648v1.7a1.506,1.506,0,0,0,3.013,0v-1.7a5.64,5.64,0,0,0,1.552-.648L23.3,27.426a1.474,1.474,0,0,0,2.124,0,1.5,1.5,0,0,0,0-2.124L24.221,24.1a5.64,5.64,0,0,0,.648-1.552h1.7a1.506,1.506,0,1,0,0-3.013Zm-9.656,3.63a2.982,2.982,0,1,1,2.124.889A2.946,2.946,0,0,1,16.915,23.163Z" transform="translate(1.922 5.923)" fill="#a1dded"/>
</svg>
