<svg id="Component_44_85" data-name="Component 44 – 85" xmlns="http://www.w3.org/2000/svg" width="30.456" height="36" viewBox="0 0 30.456 36">
  <path id="Path_53831" data-name="Path 53831" d="M23.314,23.778l-2.5,2.5-.835-.835a.92.92,0,0,0-1.391,1.206l1.484,1.577a.842.842,0,0,0,.649.278h0a.842.842,0,0,0,.649-.278l3.153-3.153a.9.9,0,0,0,0-1.3A.792.792,0,0,0,23.314,23.778Z" transform="translate(2.614 3.88)" fill="#007382"/>
  <path id="Path_53832" data-name="Path 53832" d="M26.444,4.26A5.362,5.362,0,0,0,21.478,1.1a5.462,5.462,0,0,0-4.966,3.273H8.886A3.325,3.325,0,0,0,5.5,7.758V33.714A3.325,3.325,0,0,0,8.886,37.1H32.571a3.325,3.325,0,0,0,3.386-3.386V7.758a3.325,3.325,0,0,0-3.386-3.386H26.444Zm-4.966-.9a3.154,3.154,0,0,1,3.16,3.16V7.533H18.205V6.517A3.251,3.251,0,0,1,21.478,3.357ZM33.7,7.645V33.6a1.066,1.066,0,0,1-1.129,1.129H8.886A1.066,1.066,0,0,1,7.757,33.6V7.645A1.066,1.066,0,0,1,8.886,6.517h7.176V8.661A1.066,1.066,0,0,0,17.19,9.79h8.69a1.066,1.066,0,0,0,1.129-1.129V6.517h5.676A1.113,1.113,0,0,1,33.7,7.645Z" transform="translate(-5.5 -1.1)" fill="#007382"/>
  <path id="Path_65374" data-name="Path 65374" d="M22.276,26.424H10.4c-.843,0-1.4.44-1.4,1.1s.562,1.1,1.4,1.1H22.276c.843,0,1.4-.44,1.4-1.1S23.119,26.424,22.276,26.424Z" transform="translate(-6 2.576)" fill="#007382"/>
  <path id="Path_65375" data-name="Path 65375" d="M10.4,18.859H31.788c.843,0,1.4-.44,1.4-1.1s-.562-1.1-1.4-1.1H10.4c-.843,0-1.4.44-1.4,1.1S9.562,18.859,10.4,18.859Z" transform="translate(-6 -4.662)" fill="#007382"/>
  <path id="Path_65376" data-name="Path 65376" d="M10.4,18.862H31.788c.843,0,1.4-.44,1.4-1.1s-.562-1.1-1.4-1.1H10.4c-.843,0-1.4.44-1.4,1.1S9.562,18.862,10.4,18.862Z" transform="translate(-6 1.338)" fill="#007382"/>
  <path id="Path_65377" data-name="Path 65377" d="M10.4,18.862H31.788c.843,0,1.4-.44,1.4-1.1s-.562-1.1-1.4-1.1H10.4c-.843,0-1.4.44-1.4,1.1S9.562,18.862,10.4,18.862Z" transform="translate(-5.868 6.338)" fill="#007382"/>
</svg>
