<svg xmlns="http://www.w3.org/2000/svg" width="32.064" height="36" viewBox="0 0 32.064 36">
  <path id="_14853b0c889e8a9296b2c848754db368" data-name="14853b0c889e8a9296b2c848754db368" d="M30.93,36.245H23.464a1.3,1.3,0,0,1-1.3-1.3V30.8a3.026,3.026,0,0,0-1.1-2.285,4.407,4.407,0,0,0-2.754-1.03,4.306,4.306,0,0,0-3.059,1.176,3.328,3.328,0,0,0-1.069,2.374v3.91a1.3,1.3,0,0,1-1.3,1.3H5.4a3.272,3.272,0,0,1-3.268-3.268V13.891A6.207,6.207,0,0,1,4.7,8.877L15.453,1.1a4.689,4.689,0,0,1,5.425.019l10.78,7.869a6.207,6.207,0,0,1,2.539,5V32.975a3.272,3.272,0,0,1-3.268,3.271Zm-6.162-2.608H30.93a.659.659,0,0,0,.659-.659V13.989A3.593,3.593,0,0,0,30.121,11.1L19.331,3.224a2.112,2.112,0,0,0-2.354-.007L6.224,10.99a3.59,3.59,0,0,0-1.482,2.9V32.978a.66.66,0,0,0,.659.659h6.162V31.029a5.912,5.912,0,0,1,1.86-4.244,6.809,6.809,0,0,1,4.951-1.909,7.011,7.011,0,0,1,4.389,1.669,5.6,5.6,0,0,1,2,4.255Z" transform="translate(-2.134 -0.245)" fill="#fff"/>
</svg>
