<svg id="f56658d6c61f0cb2cbe164e70b213343" xmlns="http://www.w3.org/2000/svg" width="36.004" height="36" viewBox="0 0 36.004 36">
  <path id="f56658d6c61f0cb2cbe164e70b213343-2" data-name="f56658d6c61f0cb2cbe164e70b213343" d="M27.919,21a1.385,1.385,0,0,1-1.385,1.385H15.458a1.385,1.385,0,0,1,0-2.769H26.535A1.385,1.385,0,0,1,27.919,21ZM39.01,21a18,18,0,1,1-18-18,18,18,0,0,1,18,18Zm-2.769,0A15.231,15.231,0,1,0,21.01,36.231,15.231,15.231,0,0,0,36.241,21Zm-9.706-6.923H15.458a1.385,1.385,0,1,0,0,2.769H26.535a1.385,1.385,0,1,0,0-2.769Zm0,11.077H15.458a1.385,1.385,0,0,0,0,2.769H26.535a1.385,1.385,0,1,0,0-2.769Z" transform="translate(-3.01 -3)" fill="#007382"/>
</svg>
