<svg id="Filter" xmlns="http://www.w3.org/2000/svg" width="20.992" height="16.972" viewBox="0 0 20.992 16.972">
  <path id="Path_53234" data-name="Path 53234" d="M27.6,21.387H12.354a.784.784,0,1,1,0-1.567H27.6a.784.784,0,0,1,0,1.567Z" transform="translate(-11.57 -17.554)" fill="#3cb4aa"/>
  <path id="Path_53235" data-name="Path 53235" d="M34.01,21.465a2.992,2.992,0,1,1,3.049-2.991,3.021,3.021,0,0,1-3.049,2.991Zm0-4.446a1.454,1.454,0,1,0,1.482,1.454A1.468,1.468,0,0,0,34.01,17.02Zm2.266,13.169H21.029a.769.769,0,1,1,0-1.537H36.276a.769.769,0,1,1,0,1.537Z" transform="translate(-16.067 -15.483)" fill="#3cb4aa"/>
  <path id="Path_53236" data-name="Path 53236" d="M14.62,42.943a3.049,3.049,0,1,1,3.05-3.05A3.049,3.049,0,0,1,14.62,42.943Zm0-4.532A1.482,1.482,0,1,0,16.1,39.893,1.482,1.482,0,0,0,14.62,38.411Z" transform="translate(-11.57 -25.971)" fill="#3cb4aa"/>
</svg>
