<svg xmlns="http://www.w3.org/2000/svg" width="48" height="48" viewBox="0 0 48 48">
  <g id="dc742261f313fc41d4745b1e336e2436" transform="translate(0 -0.188)">
    <rect id="Rectangle_4215" data-name="Rectangle 4215" width="48" height="48" transform="translate(0 0.188)" fill="none"/>
    <path id="Path_65391" data-name="Path 65391" d="M15.971,187.893h8.971a1.5,1.5,0,1,0,0-2.99H15.971a1.5,1.5,0,1,0,0,2.99Zm-1.5-4.485H26.437a1.5,1.5,0,1,0,0-2.99H14.476a1.5,1.5,0,1,0,0,2.99Zm19.437-26.051c0-7.5-6.665-11.411-13.456-11.414S7,149.843,7,157.356c0,5.538,1.832,7.793,3.614,9.511,1.29,1.242,2.7,2.014,2.7,4.417,0,5.137,3.6,7.642,7.145,7.639s7.142-2.512,7.142-7.639c0-2.4,1.408-3.174,2.7-4.417C32.081,165.149,33.913,162.894,33.913,157.356Zm-2.99,0c0,5.194-2.012,6.71-3.618,8.216a7.012,7.012,0,0,0-2.694,5.711c0,3.056-2.045,4.647-4.155,4.648s-4.152-1.586-4.152-4.648a7.012,7.012,0,0,0-2.694-5.711C12,164.066,9.99,162.55,9.99,157.356c0-5.72,5.294-8.425,10.466-8.424S30.922,151.641,30.922,157.356Z" transform="translate(3.466 -143.026)" fill="#007382" fill-rule="evenodd"/>
  </g>
</svg>
